<svg xmlns="http://www.w3.org/2000/svg" xmlns:xlink="http://www.w3.org/1999/xlink" width="150" zoomAndPan="magnify" viewBox="0 0 112.5 112.499997" height="150" preserveAspectRatio="xMidYMid meet" version="1.0"><defs><clipPath id="id1"><path d="M 1.675781 12 L 44 12 L 44 77 L 1.675781 77 Z M 1.675781 12 " clip-rule="nonzero"/></clipPath><clipPath id="id2"><path d="M 7 7.757812 L 106 7.757812 L 106 49 L 7 49 Z M 7 7.757812 " clip-rule="nonzero"/></clipPath><clipPath id="id3"><path d="M 70 13 L 111.175781 13 L 111.175781 78 L 70 78 Z M 70 13 " clip-rule="nonzero"/></clipPath><clipPath id="id4"><path d="M 7 50.214844 L 105 50.214844 L 105 79.601562 L 7 79.601562 Z M 7 50.214844 " clip-rule="nonzero"/></clipPath></defs><g clip-path="url(#id1)"><path fill="rgb(52.938843%, 26.269531%, 33.729553%)" d="M 1.675781 12.203125 L 1.675781 76.824219 L 43.320312 47.070312 Z M 1.675781 12.203125 " fill-opacity="1" fill-rule="nonzero"/></g><g clip-path="url(#id2)"><path fill="rgb(52.938843%, 26.269531%, 33.729553%)" d="M 105.933594 7.984375 L 7.992188 7.984375 L 56.367188 48.488281 Z M 105.933594 7.984375 " fill-opacity="1" fill-rule="nonzero"/></g><g clip-path="url(#id3)"><path fill="rgb(52.938843%, 26.269531%, 33.729553%)" d="M 70.1875 46.605469 L 111.175781 77.136719 L 111.175781 13.105469 Z M 70.1875 46.605469 " fill-opacity="1" fill-rule="nonzero"/></g><g clip-path="url(#id4)"><path fill="rgb(52.938843%, 26.269531%, 33.729553%)" d="M 47.8125 50.828125 L 7.527344 79.601562 L 105 79.601562 L 65.667969 50.304688 L 56.308594 57.949219 L 47.8125 50.828125 " fill-opacity="1" fill-rule="nonzero"/></g></svg>