<svg width="49" height="49" viewBox="0 0 49 49" fill="none" xmlns="http://www.w3.org/2000/svg">
<path d="M34.7083 42.875C36.9635 42.875 38.7917 41.0468 38.7917 38.7916C38.7917 36.5365 36.9635 34.7083 34.7083 34.7083C32.4532 34.7083 30.625 36.5365 30.625 38.7916C30.625 41.0468 32.4532 42.875 34.7083 42.875Z" stroke="#E2504C" stroke-width="2" stroke-linecap="round" stroke-linejoin="round"/>
<path d="M16.3333 42.875C18.5885 42.875 20.4167 41.0468 20.4167 38.7916C20.4167 36.5365 18.5885 34.7083 16.3333 34.7083C14.0782 34.7083 12.25 36.5365 12.25 38.7916C12.25 41.0468 14.0782 42.875 16.3333 42.875Z" stroke="#E2504C" stroke-width="2" stroke-linecap="round" stroke-linejoin="round"/>
<path d="M6.125 6.125H8.55782C9.52054 6.125 10.3524 6.79753 10.5542 7.73888L15.9875 33.0945C16.1892 34.0358 17.0211 34.7083 17.9838 34.7083H34.7083" stroke="#E2504C" stroke-width="2" stroke-linecap="round" stroke-linejoin="round"/>
<path d="M12.25 12.25H40.1611C41.5197 12.25 42.4994 13.5522 42.1228 14.8575L38.5892 27.1075C38.3371 27.9815 37.5371 28.5833 36.6275 28.5833H15.7837" stroke="#E2504C" stroke-width="2" stroke-linecap="round" stroke-linejoin="round"/>
</svg>
