<svg width="40" height="40" viewBox="0 0 40 40" fill="none" xmlns="http://www.w3.org/2000/svg">
<path d="M15 18.3333H16C16 17.781 15.5523 17.3333 15 17.3333V18.3333ZM15 33.3333V34.3333C15.5523 34.3333 16 33.8855 16 33.3333H15ZM5 33.3333H4C4 33.8855 4.44772 34.3333 5 34.3333V33.3333ZM6.66667 19.3333H15V17.3333H6.66667V19.3333ZM14 18.3333V33.3333H16V18.3333H14ZM15 32.3333H5V34.3333H15V32.3333ZM6 33.3333V19.9999H4V33.3333H6ZM6.66667 17.3333C5.19391 17.3333 4 18.5272 4 19.9999H6C6 19.6317 6.29848 19.3333 6.66667 19.3333V17.3333Z" fill="#E1504B"/>
<path d="M25 13.3333V12.3333C24.4477 12.3333 24 12.781 24 13.3333H25ZM35 33.3333V34.3333C35.5523 34.3333 36 33.8855 36 33.3333H35ZM25 33.3333H24C24 33.8855 24.4477 34.3333 25 34.3333V33.3333ZM25 14.3333H33.3333V12.3333H25V14.3333ZM34 14.9999V33.3333H36V14.9999H34ZM35 32.3333H25V34.3333H35V32.3333ZM26 33.3333V13.3333H24V33.3333H26ZM33.3333 14.3333C33.7015 14.3333 34 14.6317 34 14.9999H36C36 13.5272 34.8061 12.3333 33.3333 12.3333V14.3333Z" fill="#E1504B"/>
<path d="M25 33.3334V34.3334C25.5523 34.3334 26 33.8857 26 33.3334H25ZM15 33.3334H14C14 33.8857 14.4477 34.3334 15 34.3334V33.3334ZM16.6667 7.66675H23.3333V5.66675H16.6667V7.66675ZM24 8.33341V33.3334H26V8.33341H24ZM25 32.3334H15V34.3334H25V32.3334ZM16 33.3334V8.33341H14V33.3334H16ZM23.3333 7.66675C23.7015 7.66675 24 7.96522 24 8.33341H26C26 6.86066 24.8061 5.66675 23.3333 5.66675V7.66675ZM16.6667 5.66675C15.1939 5.66675 14 6.86066 14 8.33341H16C16 7.96522 16.2985 7.66675 16.6667 7.66675V5.66675Z" fill="#E1504B"/>
</svg>
