<svg width="34" height="34" viewBox="0 0 34 34" fill="none" xmlns="http://www.w3.org/2000/svg">
<path d="M5.66663 28.3333H28.3333" stroke="white" stroke-width="2" stroke-linecap="round" stroke-linejoin="round"/>
<path d="M11.3333 28.3333V29.3333C11.5985 29.3333 11.8529 29.228 12.0404 29.0404L11.3333 28.3333ZM5.66663 28.3333H4.66663C4.66663 28.8856 5.11434 29.3333 5.66663 29.3333V28.3333ZM5.66663 22.6667L4.95952 21.9596C4.77198 22.1471 4.66663 22.4015 4.66663 22.6667H5.66663ZM21.6649 6.66841L22.372 7.37552L22.372 7.37552L21.6649 6.66841ZM23.6684 6.66841L22.9613 7.37552L22.9613 7.37552L23.6684 6.66841ZM27.3316 10.3316L28.0387 9.6245L28.0387 9.6245L27.3316 10.3316ZM27.3316 12.3351L26.6245 11.628L26.6245 11.628L27.3316 12.3351ZM11.3333 27.3333H5.66663V29.3333H11.3333V27.3333ZM6.66663 28.3333V22.6667H4.66663V28.3333H6.66663ZM6.37373 23.3738L22.372 7.37552L20.9578 5.9613L4.95952 21.9596L6.37373 23.3738ZM22.9613 7.37552L26.6245 11.0387L28.0387 9.6245L24.3755 5.9613L22.9613 7.37552ZM26.6245 11.628L10.6262 27.6262L12.0404 29.0404L28.0387 13.0422L26.6245 11.628ZM26.6245 11.0387C26.7872 11.2014 26.7872 11.4653 26.6245 11.628L28.0387 13.0422C28.9824 12.0984 28.9824 10.5683 28.0387 9.6245L26.6245 11.0387ZM22.372 7.37552C22.5347 7.2128 22.7985 7.2128 22.9613 7.37552L24.3755 5.9613C23.4317 5.01754 21.9016 5.01754 20.9578 5.9613L22.372 7.37552Z" fill="white"/>
<path d="M17 11.3333L22.6667 17" stroke="white" stroke-width="2" stroke-linecap="round" stroke-linejoin="round"/>
</svg>
