<svg width="50" height="50" viewBox="0 0 50 50" fill="none" xmlns="http://www.w3.org/2000/svg">
<path d="M40.9552 20.2108L26.3719 7.4504C25.5864 6.76312 24.4136 6.76311 23.6281 7.4504L9.04476 20.2108C8.59265 20.6064 8.33331 21.1779 8.33331 21.7787V39.5833C8.33331 40.7339 9.26605 41.6667 10.4166 41.6667H18.75C19.9006 41.6667 20.8333 40.7339 20.8333 39.5833V31.25C20.8333 30.0994 21.7661 29.1667 22.9166 29.1667H27.0833C28.2339 29.1667 29.1666 30.0994 29.1666 31.25V39.5833C29.1666 40.7339 30.0994 41.6667 31.25 41.6667H39.5833C40.7339 41.6667 41.6666 40.7339 41.6666 39.5833V21.7787C41.6666 21.1779 41.4073 20.6064 40.9552 20.2108Z" stroke="white" stroke-width="2" stroke-linecap="round" stroke-linejoin="round"/>
</svg>
