<svg width="40" height="40" viewBox="0 0 40 40" fill="none" xmlns="http://www.w3.org/2000/svg">
<path d="M8.33336 35L31.6667 35C32.5872 35 33.3334 34.2538 33.3334 33.3333L33.3334 16.6667C33.3334 15.7462 32.5872 15 31.6667 15L8.33335 15C7.41288 15 6.66669 15.7462 6.66669 16.6667L6.66669 33.3333C6.66669 34.2538 7.41288 35 8.33336 35Z" stroke="white" stroke-width="2" stroke-linecap="round" stroke-linejoin="round"/>
<path d="M14 15C14 15.5523 14.4477 16 15 16C15.5523 16 16 15.5523 16 15H14ZM22.5872 7.26764C22.9548 7.67974 23.587 7.71575 23.9991 7.34806C24.4112 6.98038 24.4472 6.34824 24.0795 5.93614L22.5872 7.26764ZM16 15V10.2H14V15H16ZM16 10.2C16 7.81152 17.7854 6 19.8395 6V4C16.548 4 14 6.84472 14 10.2H16ZM19.8395 6C20.9037 6 21.8794 6.47441 22.5872 7.26764L24.0795 5.93614C23.0256 4.75488 21.5218 4 19.8395 4V6Z" fill="white"/>
</svg>
