<svg width="50" height="50" viewBox="0 0 50 50" fill="none" xmlns="http://www.w3.org/2000/svg">
<path d="M24.2929 30.5429C23.9023 30.9334 23.9023 31.5666 24.2929 31.9571C24.6834 32.3476 25.3166 32.3476 25.7071 31.9571L24.2929 30.5429ZM31.25 25L31.9571 25.7071C32.1446 25.5196 32.25 25.2652 32.25 25C32.25 24.7348 32.1446 24.4804 31.9571 24.2929L31.25 25ZM25.7071 18.0429C25.3166 17.6524 24.6834 17.6524 24.2929 18.0429C23.9023 18.4334 23.9023 19.0666 24.2929 19.4571L25.7071 18.0429ZM8.33331 24C7.78103 24 7.33331 24.4477 7.33331 25C7.33331 25.5523 7.78103 26 8.33331 26L8.33331 24ZM25.7071 31.9571L31.9571 25.7071L30.5429 24.2929L24.2929 30.5429L25.7071 31.9571ZM31.9571 24.2929L25.7071 18.0429L24.2929 19.4571L30.5429 25.7071L31.9571 24.2929ZM8.33331 26L31.25 26L31.25 24L8.33331 24L8.33331 26Z" fill="#E2504C"/>
<path d="M18.75 14.5834V10.4167C18.75 9.26611 19.6827 8.33337 20.8333 8.33337H39.5833C40.7339 8.33337 41.6667 9.26611 41.6667 10.4167V39.5834C41.6667 40.734 40.7339 41.6667 39.5833 41.6667H20.8333C19.6827 41.6667 18.75 40.734 18.75 39.5834V35.4167" stroke="#E2504C" stroke-width="2" stroke-linecap="round" stroke-linejoin="round"/>
</svg>
