<svg width="42" height="36" viewBox="0 0 42 36" fill="none" xmlns="http://www.w3.org/2000/svg">
<path d="M13.85 8.99944L27.8485 9.20093L27.8735 7.20108C27.915 3.88764 24.815 1.15645 20.9494 1.10081C17.0838 1.04517 13.9165 3.68615 13.875 6.9996L13.85 8.99944Z" stroke="#E2504C" stroke-width="2" stroke-linecap="round" stroke-linejoin="round"/>
<path d="M3.44382 34.7055H37.6573C39.007 34.7055 40.1011 33.8787 40.1011 32.8587V31.7769C40.1011 31.2871 39.8437 30.8173 39.3854 30.471L38.137 29.5275C37.8298 29.2954 37.6573 28.9806 37.6573 28.6524V21.7778C37.6573 14.638 29.9983 8.85008 20.5505 8.8501C11.1027 8.85012 3.44382 14.638 3.44382 21.7778V28.6524C3.44382 28.9807 3.27127 29.2955 2.96414 29.5276L1.71578 30.471C1.25747 30.8173 1 31.2871 1 31.7769V32.8587C1 33.8787 2.09414 34.7055 3.44382 34.7055Z" stroke="#E2504C" stroke-width="2" stroke-linecap="round" stroke-linejoin="round"/>
</svg>
