<svg width="38" height="38" viewBox="0 0 38 38" fill="none" xmlns="http://www.w3.org/2000/svg">
<path d="M22.1667 15.8333L22.1667 26.9166" stroke="#E2504C" stroke-width="2" stroke-linecap="round" stroke-linejoin="round"/>
<path d="M15.8333 15.8333L15.8333 26.9166" stroke="#E2504C" stroke-width="2" stroke-linecap="round" stroke-linejoin="round"/>
<path d="M9.5 9.5V8.5C8.94772 8.5 8.5 8.94772 8.5 9.5H9.5ZM28.5 9.5H29.5C29.5 8.94772 29.0523 8.5 28.5 8.5V9.5ZM9.5 10.5H28.5V8.5H9.5V10.5ZM27.5 9.5V31.6667H29.5V9.5H27.5ZM26.9167 32.25H11.0833V34.25H26.9167V32.25ZM10.5 31.6667V9.5H8.5V31.6667H10.5ZM11.0833 32.25C10.7612 32.25 10.5 31.9888 10.5 31.6667H8.5C8.5 33.0934 9.6566 34.25 11.0833 34.25V32.25ZM27.5 31.6667C27.5 31.9888 27.2388 32.25 26.9167 32.25V34.25C28.3434 34.25 29.5 33.0934 29.5 31.6667H27.5Z" fill="#E2504C"/>
<path d="M6.33325 9.5H31.6666" stroke="#E2504C" stroke-width="2" stroke-linecap="round" stroke-linejoin="round"/>
<path d="M25.3334 9.5V10.5C25.8857 10.5 26.3334 10.0523 26.3334 9.5H25.3334ZM12.6667 9.5H11.6667C11.6667 10.0523 12.1145 10.5 12.6667 10.5V9.5ZM14.2501 5.75H23.7501V3.75H14.2501V5.75ZM24.3334 6.33333V9.5H26.3334V6.33333H24.3334ZM25.3334 8.5H12.6667V10.5H25.3334V8.5ZM13.6667 9.5V6.33333H11.6667V9.5H13.6667ZM23.7501 5.75C24.0722 5.75 24.3334 6.01117 24.3334 6.33333H26.3334C26.3334 4.9066 25.1768 3.75 23.7501 3.75V5.75ZM14.2501 3.75C12.8233 3.75 11.6667 4.9066 11.6667 6.33333H13.6667C13.6667 6.01117 13.9279 5.75 14.2501 5.75V3.75Z" fill="#E2504C"/>
</svg>
