<svg width="48" height="48" viewBox="0 0 48 48" fill="none" xmlns="http://www.w3.org/2000/svg">
<path d="M24 42C33.9411 42 42 33.9411 42 24C42 14.0589 33.9411 6 24 6C14.0589 6 6 14.0589 6 24C6 33.9411 14.0589 42 24 42Z" stroke="#E2504C" stroke-width="2" stroke-linecap="round" stroke-linejoin="round"/>
<path d="M34.4329 38.6646C31.8695 35.8016 28.145 34 23.9997 34C19.8544 34 16.1298 35.8016 13.5664 38.6646" stroke="#E2504C" stroke-width="2" stroke-linecap="round" stroke-linejoin="round"/>
<path d="M24 28C27.3137 28 30 25.3137 30 22C30 18.6863 27.3137 16 24 16C20.6863 16 18 18.6863 18 22C18 25.3137 20.6863 28 24 28Z" stroke="#E2504C" stroke-width="2" stroke-linecap="round" stroke-linejoin="round"/>
</svg>
